<mxfile host="app.diagrams.net" modified="2023-05-11T09:54:15.143Z" agent="Mozilla/5.0 (Windows NT 10.0; Win64; x64) AppleWebKit/537.36 (KHTML, like Gecko) Chrome/113.0.0.0 Safari/537.36" etag="vq_GJnDXsMpsVMgu1bdD" version="21.2.9" type="github">
  <diagram name="Page-1" id="kgK7fGXu1Ar3xZ1o0jyY">
    <mxGraphModel dx="627" dy="308" grid="1" gridSize="10" guides="1" tooltips="1" connect="1" arrows="1" fold="1" page="1" pageScale="1" pageWidth="827" pageHeight="1169" math="0" shadow="0">
      <root>
        <mxCell id="0" />
        <mxCell id="1" parent="0" />
        <mxCell id="mzRqFOGo6O6pgWtyTD5r-2" value="Region" style="points=[[0,0],[0.25,0],[0.5,0],[0.75,0],[1,0],[1,0.25],[1,0.5],[1,0.75],[1,1],[0.75,1],[0.5,1],[0.25,1],[0,1],[0,0.75],[0,0.5],[0,0.25]];outlineConnect=0;gradientColor=none;html=1;whiteSpace=wrap;fontSize=12;fontStyle=0;container=1;pointerEvents=0;collapsible=0;recursiveResize=0;shape=mxgraph.aws4.group;grIcon=mxgraph.aws4.group_region;strokeColor=#147EBA;fillColor=none;verticalAlign=top;align=left;spacingLeft=30;fontColor=#147EBA;" vertex="1" parent="1">
          <mxGeometry x="20" y="130" width="480" height="310" as="geometry" />
        </mxCell>
        <mxCell id="mzRqFOGo6O6pgWtyTD5r-5" value="VPC" style="sketch=0;outlineConnect=0;html=1;whiteSpace=wrap;fontSize=12;fontStyle=0;shape=mxgraph.aws4.group;grIcon=mxgraph.aws4.group_vpc;verticalAlign=top;align=left;spacingLeft=30;dashed=0;" vertex="1" parent="mzRqFOGo6O6pgWtyTD5r-2">
          <mxGeometry x="30" y="45" width="280" height="220" as="geometry" />
        </mxCell>
        <mxCell id="mzRqFOGo6O6pgWtyTD5r-4" value="Availability zone" style="sketch=0;outlineConnect=0;gradientColor=none;html=1;whiteSpace=wrap;fontSize=12;fontStyle=0;shape=mxgraph.aws4.group;grIcon=mxgraph.aws4.group_availability_zone;strokeColor=#545B64;fillColor=none;verticalAlign=top;align=left;spacingLeft=30;fontColor=#545B64;dashed=1;" vertex="1" parent="mzRqFOGo6O6pgWtyTD5r-2">
          <mxGeometry x="60" width="170" height="310" as="geometry" />
        </mxCell>
        <mxCell id="mzRqFOGo6O6pgWtyTD5r-6" value="Public subnet" style="points=[[0,0],[0.25,0],[0.5,0],[0.75,0],[1,0],[1,0.25],[1,0.5],[1,0.75],[1,1],[0.75,1],[0.5,1],[0.25,1],[0,1],[0,0.75],[0,0.5],[0,0.25]];outlineConnect=0;gradientColor=none;html=1;whiteSpace=wrap;fontSize=12;fontStyle=0;container=1;pointerEvents=0;collapsible=0;recursiveResize=0;shape=mxgraph.aws4.group;grIcon=mxgraph.aws4.group_security_group;grStroke=0;strokeColor=#248814;fillColor=#E9F3E6;verticalAlign=top;align=left;spacingLeft=30;fontColor=#248814;dashed=0;" vertex="1" parent="mzRqFOGo6O6pgWtyTD5r-2">
          <mxGeometry x="80" y="60" width="80" height="70" as="geometry" />
        </mxCell>
        <mxCell id="mzRqFOGo6O6pgWtyTD5r-8" value="" style="rounded=1;arcSize=10;strokeColor=#ff0000;fillColor=none;gradientColor=none;strokeWidth=2;" vertex="1" parent="mzRqFOGo6O6pgWtyTD5r-6">
          <mxGeometry x="10" y="10" width="60" height="50" as="geometry" />
        </mxCell>
        <mxCell id="mzRqFOGo6O6pgWtyTD5r-11" value="" style="sketch=0;points=[[0,0,0],[0.25,0,0],[0.5,0,0],[0.75,0,0],[1,0,0],[0,1,0],[0.25,1,0],[0.5,1,0],[0.75,1,0],[1,1,0],[0,0.25,0],[0,0.5,0],[0,0.75,0],[1,0.25,0],[1,0.5,0],[1,0.75,0]];outlineConnect=0;fontColor=#232F3E;gradientColor=#F78E04;gradientDirection=north;fillColor=#D05C17;strokeColor=#ffffff;dashed=0;verticalLabelPosition=bottom;verticalAlign=top;align=center;html=1;fontSize=12;fontStyle=0;aspect=fixed;shape=mxgraph.aws4.resourceIcon;resIcon=mxgraph.aws4.ec2;" vertex="1" parent="mzRqFOGo6O6pgWtyTD5r-6">
          <mxGeometry x="19.5" y="15" width="40" height="40" as="geometry" />
        </mxCell>
        <mxCell id="mzRqFOGo6O6pgWtyTD5r-7" value="Private subnet" style="points=[[0,0],[0.25,0],[0.5,0],[0.75,0],[1,0],[1,0.25],[1,0.5],[1,0.75],[1,1],[0.75,1],[0.5,1],[0.25,1],[0,1],[0,0.75],[0,0.5],[0,0.25]];outlineConnect=0;gradientColor=none;html=1;whiteSpace=wrap;fontSize=12;fontStyle=0;container=1;pointerEvents=0;collapsible=0;recursiveResize=0;shape=mxgraph.aws4.group;grIcon=mxgraph.aws4.group_security_group;grStroke=0;strokeColor=#147EBA;fillColor=#E6F2F8;verticalAlign=top;align=left;spacingLeft=30;fontColor=#147EBA;dashed=0;" vertex="1" parent="mzRqFOGo6O6pgWtyTD5r-2">
          <mxGeometry x="80" y="180" width="80" height="70" as="geometry" />
        </mxCell>
        <mxCell id="mzRqFOGo6O6pgWtyTD5r-9" value="" style="rounded=1;arcSize=10;strokeColor=#ff0000;fillColor=none;gradientColor=none;strokeWidth=2;" vertex="1" parent="mzRqFOGo6O6pgWtyTD5r-7">
          <mxGeometry x="10" y="10" width="60" height="50" as="geometry" />
        </mxCell>
        <mxCell id="mzRqFOGo6O6pgWtyTD5r-13" value="" style="sketch=0;outlineConnect=0;fontColor=#232F3E;gradientColor=none;fillColor=#2E27AD;strokeColor=none;dashed=0;verticalLabelPosition=bottom;verticalAlign=top;align=center;html=1;fontSize=12;fontStyle=0;aspect=fixed;pointerEvents=1;shape=mxgraph.aws4.rds_mysql_instance;" vertex="1" parent="mzRqFOGo6O6pgWtyTD5r-7">
          <mxGeometry x="19.5" y="17" width="38" height="38" as="geometry" />
        </mxCell>
        <mxCell id="mzRqFOGo6O6pgWtyTD5r-14" value="" style="sketch=0;outlineConnect=0;fontColor=#232F3E;gradientColor=none;fillColor=#4D27AA;strokeColor=none;dashed=0;verticalLabelPosition=bottom;verticalAlign=top;align=center;html=1;fontSize=12;fontStyle=0;aspect=fixed;pointerEvents=1;shape=mxgraph.aws4.nat_gateway;" vertex="1" parent="mzRqFOGo6O6pgWtyTD5r-2">
          <mxGeometry x="180" y="75" width="40" height="40" as="geometry" />
        </mxCell>
      </root>
    </mxGraphModel>
  </diagram>
</mxfile>
